<svg xmlns="http://www.w3.org/2000/svg" xmlns:xlink="http://www.w3.org/1999/xlink" width="500" zoomAndPan="magnify" viewBox="0 0 375 374.999991" height="500" preserveAspectRatio="xMidYMid meet" version="1.0"><defs><filter x="0%" y="0%" width="100%" height="100%" id="1aae8f94dc"><feColorMatrix values="0 0 0 0 1 0 0 0 0 1 0 0 0 0 1 0 0 0 1 0" color-interpolation-filters="sRGB"/></filter><g/><clipPath id="16ac5fbb6f"><path d="M 78.09375 157 L 140 157 L 140 219.273438 L 78.09375 219.273438 Z M 78.09375 157 " clip-rule="nonzero"/></clipPath><mask id="7b71905a10"><g filter="url(#1aae8f94dc)"><rect x="-37.5" width="450" fill="#000000" y="-37.499999" height="449.999989" fill-opacity="0.7"/></g></mask><clipPath id="e2b2792bee"><path d="M 0.09375 0.921875 L 61.441406 0.921875 L 61.441406 62.273438 L 0.09375 62.273438 Z M 0.09375 0.921875 " clip-rule="nonzero"/></clipPath><clipPath id="74c8f8a694"><rect x="0" width="62" y="0" height="63"/></clipPath><clipPath id="fb0aa1dafa"><path d="M 95 157 L 156.574219 157 L 156.574219 219.273438 L 95 219.273438 Z M 95 157 " clip-rule="nonzero"/></clipPath><mask id="a8700dac4b"><g filter="url(#1aae8f94dc)"><rect x="-37.5" width="450" fill="#000000" y="-37.499999" height="449.999989" fill-opacity="0.7"/></g></mask><clipPath id="ff7511827b"><path d="M 0.0390625 0.679688 L 61.574219 0.679688 L 61.574219 62.273438 L 0.0390625 62.273438 Z M 0.0390625 0.679688 " clip-rule="nonzero"/></clipPath><clipPath id="6852aee065"><rect x="0" width="62" y="0" height="63"/></clipPath></defs><rect x="-37.5" width="450" fill="#ffffff" y="-37.499999" height="449.999989" fill-opacity="1"/><rect x="-37.5" width="450" fill="#ffffff" y="-37.499999" height="449.999989" fill-opacity="1"/><g fill="#002557" fill-opacity="1"><g transform="translate(156.515692, 206.176765)"><g><path d="M 2.441406 0 L 11.742188 0 C 21.808594 0 27.042969 -6.304688 27.042969 -17.488281 C 27.042969 -28.46875 22.011719 -35.078125 11.792969 -35.078125 L 2.441406 -35.078125 Z M 9.761719 -6.253906 L 9.761719 -28.824219 L 11.691406 -28.824219 C 16.980469 -28.824219 19.46875 -24.910156 19.46875 -17.589844 C 19.46875 -10.117188 16.726562 -6.253906 11.234375 -6.253906 Z M 9.761719 -6.253906 "/></g></g></g><g fill="#002557" fill-opacity="1"><g transform="translate(183.861146, 206.176765)"><g><path d="M 7.320312 0 L 14.945312 0 L 14.945312 -28.570312 L 21.808594 -28.570312 L 21.808594 -35.078125 L 0.507812 -35.078125 L 0.507812 -28.570312 L 7.320312 -28.570312 Z M 7.320312 0 "/></g></g></g><g fill="#002557" fill-opacity="1"><g transform="translate(205.158027, 206.176765)"><g><path d="M 14.84375 -26.027344 L 12.605469 -14.539062 L 11.335938 -6.203125 L 11.183594 -6.203125 L 9.914062 -14.488281 L 7.675781 -26.027344 L 0 -26.027344 L 6.863281 0 L 9.097656 0 C 8.640625 2.847656 7.675781 4.523438 5.285156 4.523438 C 4.421875 4.523438 3.8125 4.421875 3.050781 4.21875 L 1.675781 8.894531 C 2.949219 9.355469 4.21875 9.710938 6.558594 9.710938 C 9.964844 9.710938 13.574219 7.675781 15.605469 0 L 22.46875 -26.027344 Z M 14.84375 -26.027344 "/></g></g></g><g fill="#002557" fill-opacity="1"><g transform="translate(226.607395, 206.176765)"><g><path d="M 2.542969 9.046875 L 9.8125 9.046875 L 9.8125 -3.863281 L 10.066406 -3.863281 C 11.132812 -1.015625 13.371094 0.558594 16.929688 0.558594 C 21.605469 0.558594 25.011719 -3.863281 25.011719 -13.015625 C 25.011719 -22.113281 21.65625 -26.535156 16.214844 -26.535156 C 13.066406 -26.535156 10.523438 -24.605469 9.558594 -21.65625 L 9.304688 -21.65625 L 8.996094 -26.027344 L 2.542969 -26.027344 Z M 13.675781 -5.59375 C 11.234375 -5.59375 9.863281 -8.285156 9.863281 -13.117188 C 9.863281 -17.792969 11.234375 -20.386719 13.675781 -20.386719 C 16.113281 -20.386719 17.488281 -18.148438 17.488281 -13.117188 C 17.488281 -7.929688 16.113281 -5.59375 13.675781 -5.59375 Z M 13.675781 -5.59375 "/></g></g></g><g fill="#002557" fill-opacity="1"><g transform="translate(251.818046, 206.176765)"><g><path d="M 13.015625 -5.4375 C 10.167969 -5.4375 8.4375 -7.371094 8.4375 -11.285156 L 22.113281 -11.285156 C 22.265625 -12.097656 22.316406 -13.523438 22.316406 -14.285156 C 22.316406 -21.65625 19.113281 -26.535156 11.996094 -26.535156 C 4.421875 -26.535156 1.21875 -21.046875 1.21875 -12.808594 C 1.21875 -4.269531 5.644531 0.507812 12.605469 0.507812 C 16.777344 0.507812 20.128906 -1.015625 22.164062 -5.796875 L 16.980469 -7.980469 C 16.011719 -6.152344 14.691406 -5.4375 13.015625 -5.4375 Z M 12.25 -20.894531 C 14.996094 -20.894531 15.707031 -18.707031 15.65625 -16.0625 L 8.589844 -16.0625 C 8.742188 -19.011719 9.660156 -20.894531 12.25 -20.894531 Z M 12.25 -20.894531 "/></g></g></g><g clip-path="url(#16ac5fbb6f)"><g mask="url(#7b71905a10)"><g transform="matrix(1, 0, 0, 1, 78, 157)"><g clip-path="url(#74c8f8a694)"><g clip-path="url(#e2b2792bee)"><path fill="#002557" d="M 39.242188 62.15625 C 33.601562 62.15625 27.957031 60.007812 23.660156 55.710938 L 6.554688 38.605469 C 2.390625 34.441406 0.101562 28.910156 0.101562 23.023438 C 0.101562 17.136719 2.390625 11.601562 6.554688 7.4375 C 15.148438 -1.152344 29.128906 -1.152344 37.71875 7.4375 L 54.824219 24.542969 C 58.988281 28.707031 61.28125 34.242188 61.28125 40.128906 C 61.28125 46.015625 58.988281 51.546875 54.824219 55.710938 C 50.53125 60.007812 44.886719 62.15625 39.242188 62.15625 Z M 22.136719 10.742188 C 18.992188 10.742188 15.84375 11.941406 13.449219 14.335938 C 11.128906 16.65625 9.851562 19.742188 9.851562 23.023438 C 9.851562 26.304688 11.128906 29.386719 13.449219 31.707031 L 30.554688 48.8125 C 35.347656 53.605469 43.140625 53.605469 47.929688 48.8125 C 50.25 46.492188 51.527344 43.410156 51.527344 40.128906 C 51.527344 36.84375 50.25 33.761719 47.929688 31.441406 L 30.824219 14.335938 C 28.429688 11.941406 25.285156 10.742188 22.136719 10.742188 Z M 22.136719 10.742188 " fill-opacity="1" fill-rule="nonzero"/></g></g></g></g></g><g clip-path="url(#fb0aa1dafa)"><g mask="url(#a8700dac4b)"><g transform="matrix(1, 0, 0, 1, 95, 157)"><g clip-path="url(#6852aee065)"><g clip-path="url(#ff7511827b)"><path fill="#0cc0df" d="M 22.363281 62.15625 C 16.71875 62.15625 11.074219 60.007812 6.78125 55.710938 C 2.617188 51.546875 0.324219 46.015625 0.324219 40.128906 C 0.324219 34.242188 2.617188 28.707031 6.78125 24.542969 L 23.886719 7.4375 C 32.476562 -1.152344 46.457031 -1.152344 55.050781 7.4375 C 59.214844 11.601562 61.503906 17.136719 61.503906 23.023438 C 61.503906 28.910156 59.214844 34.441406 55.050781 38.605469 L 37.945312 55.710938 C 33.648438 60.007812 28.003906 62.15625 22.363281 62.15625 Z M 39.46875 10.742188 C 36.320312 10.742188 33.175781 11.941406 30.78125 14.335938 L 13.675781 31.441406 C 11.355469 33.761719 10.078125 36.847656 10.078125 40.128906 C 10.078125 43.410156 11.355469 46.492188 13.675781 48.816406 C 18.464844 53.605469 26.257812 53.605469 31.050781 48.816406 L 48.15625 31.710938 C 50.476562 29.386719 51.753906 26.304688 51.753906 23.023438 C 51.753906 19.742188 50.476562 16.65625 48.15625 14.335938 C 45.761719 11.941406 42.613281 10.742188 39.46875 10.742188 Z M 39.46875 10.742188 " fill-opacity="1" fill-rule="nonzero"/></g></g></g></g></g></svg>